<?xml version="1.0" encoding="UTF-8"?>
<!DOCTYPE svg PUBLIC "-//W3C//DTD SVG 1.1//EN" "http://www.w3.org/Graphics/SVG/1.1/DTD/svg11.dtd">
<svg xmlns="http://www.w3.org/2000/svg" version="1.1" width="50px" height="50px" style="shape-rendering:geometricPrecision; text-rendering:geometricPrecision; image-rendering:optimizeQuality; fill-rule:evenodd; clip-rule:evenodd" xmlns:xlink="http://www.w3.org/1999/xlink">
<g><path style="opacity:0.835" fill="#000000" d="M 10.5,1.5 C 24.5612,-0.364286 29.8945,5.63571 26.5,19.5C 25.1667,22.1667 23.8333,22.1667 22.5,19.5C 21.2023,15.2846 21.2023,11.1179 22.5,7C 17.25,3.32398 12.4167,3.82398 8,8.5C 7.1608,13.9212 7.49414,19.2545 9,24.5C 9.41395,24.0426 9.91395,23.7093 10.5,23.5C 11.1667,18.5 11.8333,13.5 12.5,8.5C 13.4287,9.68884 13.762,11.0222 13.5,12.5C 22.8333,13.1667 22.8333,13.8333 13.5,14.5C 13.5,17.5 13.5,20.5 13.5,23.5C 20.8333,23.5 28.1667,23.5 35.5,23.5C 35.5,20.5 35.5,17.5 35.5,14.5C 26.1667,13.8333 26.1667,13.1667 35.5,12.5C 35.238,11.0222 35.5713,9.68884 36.5,8.5C 37.1667,13.5 37.8333,18.5 38.5,23.5C 42.6637,30.8417 44.3303,38.8417 43.5,47.5C 30.8333,47.5 18.1667,47.5 5.5,47.5C 5.1762,41.3836 5.84286,35.3836 7.5,29.5C 4.66039,22.4293 3.82706,15.096 5,7.5C 6.35968,4.97739 8.19301,2.97739 10.5,1.5 Z M 23.5,9.5 C 24.7479,10.3339 25.4146,11.6672 25.5,13.5C 25.1667,14.8333 24.8333,16.1667 24.5,17.5C 23.52,14.9135 23.1866,12.2469 23.5,9.5 Z M 13.5,25.5 C 14.3564,29.2723 14.0231,33.1057 12.5,37C 20.5,37.6667 28.5,37.6667 36.5,37C 35.185,33.2758 34.685,29.4425 35,25.5C 38.2839,29.5046 40.1173,34.1712 40.5,39.5C 29.8333,39.5 19.1667,39.5 8.5,39.5C 9.01649,34.274 10.6832,29.6073 13.5,25.5 Z M 17.5,25.5 C 19.4023,28.3373 20.069,31.6707 19.5,35.5C 18.5,35.5 17.5,35.5 16.5,35.5C 16.8333,32.1667 17.1667,28.8333 17.5,25.5 Z M 22.5,25.5 C 23.8333,25.5 25.1667,25.5 26.5,25.5C 26.5,28.8333 26.5,32.1667 26.5,35.5C 25.1667,35.5 23.8333,35.5 22.5,35.5C 22.5,32.1667 22.5,28.8333 22.5,25.5 Z M 29.5,25.5 C 30.6491,25.7911 31.3158,26.6244 31.5,28C 32.1595,30.4621 32.4928,32.9621 32.5,35.5C 31.5,35.5 30.5,35.5 29.5,35.5C 29.5,32.1667 29.5,28.8333 29.5,25.5 Z M 7.5,41.5 C 18.8333,41.5 30.1667,41.5 41.5,41.5C 41.5,42.8333 41.5,44.1667 41.5,45.5C 30.1667,45.5 18.8333,45.5 7.5,45.5C 7.5,44.1667 7.5,42.8333 7.5,41.5 Z"/></g>
<g><path style="opacity:0.766" fill="#000000" d="M 23.5,42.5 C 25.337,42.6395 25.6704,43.3061 24.5,44.5C 23.7025,44.0431 23.3691,43.3764 23.5,42.5 Z"/></g>
</svg>
